<svg width="62" height="89" viewBox="0 0 62 89" fill="none" xmlns="http://www.w3.org/2000/svg">
<path d="M3.39874 36.0171L0.100888 41.6184L11.3034 48.2141L14.6013 42.6128L3.39874 36.0171ZM33.6273 10.2978C35.4487 7.20436 34.4174 3.22009 31.3239 1.39873C28.2304 -0.422619 24.2461 0.608656 22.4248 3.70215L33.6273 10.2978ZM14.6013 42.6128L33.6273 10.2978L22.4248 3.70215L3.39874 36.0171L14.6013 42.6128Z" fill="#FCFF54"/>
<path d="M29.0001 75.5L22.5001 75.5L22.5001 88.5L29.0001 88.5L29.0001 75.5ZM55.0001 88.5C58.5899 88.5 61.5001 85.5898 61.5001 82C61.5001 78.4101 58.5899 75.5 55.0001 75.5L55.0001 88.5ZM29.0001 88.5L55.0001 88.5L55.0001 75.5L29.0001 75.5L29.0001 88.5Z" fill="#FCFF54"/>
</svg>
