<svg width="249" height="72" viewBox="0 0 249 72" fill="none" xmlns="http://www.w3.org/2000/svg">
<path d="M98.076 49.288C97.332 49.288 96.756 49.084 96.348 48.676C95.964 48.244 95.772 47.656 95.772 46.912V25.672C95.772 24.904 95.964 24.328 96.348 23.944C96.756 23.536 97.332 23.332 98.076 23.332C98.82 23.332 99.384 23.536 99.768 23.944C100.176 24.328 100.38 24.904 100.38 25.672V34.384H104.484L103.584 34.996L110.208 24.52C110.544 24.016 110.928 23.68 111.36 23.512C111.816 23.344 112.26 23.308 112.692 23.404C113.124 23.5 113.496 23.704 113.808 24.016C114.12 24.328 114.288 24.712 114.312 25.168C114.36 25.624 114.216 26.116 113.88 26.644L107.832 35.896L106.032 34.564C107.592 34.804 108.912 35.368 109.992 36.256C111.072 37.144 111.996 38.38 112.764 39.964L115.716 46.012C116.028 46.612 116.124 47.152 116.004 47.632C115.908 48.112 115.668 48.496 115.284 48.784C114.924 49.048 114.504 49.204 114.024 49.252C113.568 49.3 113.112 49.216 112.656 49C112.224 48.76 111.876 48.364 111.612 47.812L108.768 41.692C108.192 40.444 107.496 39.556 106.68 39.028C105.888 38.5 104.892 38.236 103.692 38.236H100.38V46.912C100.38 47.656 100.188 48.244 99.804 48.676C99.42 49.084 98.844 49.288 98.076 49.288ZM127.632 49.36C125.808 49.36 124.224 48.988 122.88 48.244C121.536 47.5 120.492 46.444 119.748 45.076C119.004 43.684 118.632 42.052 118.632 40.18C118.632 38.764 118.836 37.504 119.244 36.4C119.676 35.272 120.288 34.312 121.08 33.52C121.872 32.704 122.82 32.092 123.924 31.684C125.028 31.252 126.264 31.036 127.632 31.036C129.456 31.036 131.04 31.408 132.384 32.152C133.728 32.896 134.772 33.952 135.516 35.32C136.26 36.688 136.632 38.308 136.632 40.18C136.632 41.596 136.416 42.868 135.984 43.996C135.576 45.124 134.976 46.096 134.184 46.912C133.392 47.704 132.444 48.316 131.34 48.748C130.236 49.156 129 49.36 127.632 49.36ZM127.632 45.94C128.52 45.94 129.3 45.724 129.972 45.292C130.644 44.86 131.16 44.224 131.52 43.384C131.904 42.52 132.096 41.452 132.096 40.18C132.096 38.26 131.688 36.832 130.872 35.896C130.056 34.936 128.976 34.456 127.632 34.456C126.744 34.456 125.964 34.672 125.292 35.104C124.62 35.512 124.092 36.148 123.708 37.012C123.348 37.852 123.168 38.908 123.168 40.18C123.168 42.076 123.576 43.516 124.392 44.5C125.208 45.46 126.288 45.94 127.632 45.94ZM154.563 49.288C153.843 49.288 153.291 49.096 152.907 48.712C152.523 48.304 152.331 47.728 152.331 46.984V34.924H146.787V36.976C146.787 38.632 146.679 40.12 146.463 41.44C146.271 42.76 145.959 43.912 145.527 44.896C145.119 45.88 144.579 46.708 143.907 47.38C143.235 48.052 142.431 48.592 141.495 49C140.991 49.216 140.523 49.276 140.091 49.18C139.683 49.084 139.335 48.904 139.047 48.64C138.783 48.352 138.615 48.016 138.543 47.632C138.471 47.224 138.519 46.828 138.687 46.444C138.855 46.06 139.179 45.736 139.659 45.472C140.259 45.136 140.751 44.716 141.135 44.212C141.519 43.708 141.819 43.108 142.035 42.412C142.251 41.692 142.407 40.876 142.503 39.964C142.599 39.052 142.647 38.008 142.647 36.832V33.916C142.647 33.1 142.863 32.476 143.295 32.044C143.727 31.612 144.351 31.396 145.167 31.396H154.311C155.127 31.396 155.751 31.612 156.183 32.044C156.615 32.476 156.831 33.1 156.831 33.916V46.984C156.831 47.728 156.627 48.304 156.219 48.712C155.835 49.096 155.283 49.288 154.563 49.288ZM169.995 49.36C168.171 49.36 166.587 48.988 165.243 48.244C163.899 47.5 162.855 46.444 162.111 45.076C161.367 43.684 160.995 42.052 160.995 40.18C160.995 38.764 161.199 37.504 161.607 36.4C162.039 35.272 162.651 34.312 163.443 33.52C164.235 32.704 165.183 32.092 166.287 31.684C167.391 31.252 168.627 31.036 169.995 31.036C171.819 31.036 173.403 31.408 174.747 32.152C176.091 32.896 177.135 33.952 177.879 35.32C178.623 36.688 178.995 38.308 178.995 40.18C178.995 41.596 178.779 42.868 178.347 43.996C177.939 45.124 177.339 46.096 176.547 46.912C175.755 47.704 174.807 48.316 173.703 48.748C172.599 49.156 171.363 49.36 169.995 49.36ZM169.995 45.94C170.883 45.94 171.663 45.724 172.335 45.292C173.007 44.86 173.523 44.224 173.883 43.384C174.267 42.52 174.459 41.452 174.459 40.18C174.459 38.26 174.051 36.832 173.235 35.896C172.419 34.936 171.339 34.456 169.995 34.456C169.107 34.456 168.327 34.672 167.655 35.104C166.983 35.512 166.455 36.148 166.071 37.012C165.711 37.852 165.531 38.908 165.531 40.18C165.531 42.076 165.939 43.516 166.755 44.5C167.571 45.46 168.651 45.94 169.995 45.94ZM185.433 49.288C184.713 49.288 184.149 49.096 183.741 48.712C183.357 48.304 183.165 47.728 183.165 46.984V33.448C183.165 32.704 183.357 32.14 183.741 31.756C184.149 31.348 184.713 31.144 185.433 31.144C186.153 31.144 186.705 31.348 187.089 31.756C187.473 32.14 187.665 32.704 187.665 33.448V38.236H190.221L194.721 32.188C195.057 31.732 195.441 31.444 195.873 31.324C196.305 31.18 196.713 31.168 197.097 31.288C197.505 31.408 197.829 31.624 198.069 31.936C198.333 32.248 198.465 32.62 198.465 33.052C198.489 33.46 198.333 33.892 197.997 34.348L193.713 40.216L192.741 38.776C193.389 38.848 193.965 39.028 194.469 39.316C194.997 39.604 195.477 40.012 195.909 40.54C196.365 41.044 196.809 41.68 197.241 42.448L199.365 46.228C199.653 46.732 199.749 47.2 199.653 47.632C199.581 48.04 199.377 48.388 199.041 48.676C198.729 48.964 198.357 49.144 197.925 49.216C197.493 49.288 197.061 49.228 196.629 49.036C196.221 48.868 195.873 48.532 195.585 48.028L193.173 43.816C192.861 43.264 192.549 42.844 192.237 42.556C191.949 42.244 191.613 42.028 191.229 41.908C190.869 41.788 190.425 41.728 189.897 41.728H187.665V46.984C187.665 47.728 187.473 48.304 187.089 48.712C186.705 49.096 186.153 49.288 185.433 49.288ZM211.339 49.36C209.515 49.36 207.931 48.988 206.587 48.244C205.243 47.5 204.199 46.444 203.455 45.076C202.711 43.684 202.339 42.052 202.339 40.18C202.339 38.764 202.543 37.504 202.951 36.4C203.383 35.272 203.995 34.312 204.787 33.52C205.579 32.704 206.527 32.092 207.631 31.684C208.735 31.252 209.971 31.036 211.339 31.036C213.163 31.036 214.747 31.408 216.091 32.152C217.435 32.896 218.479 33.952 219.223 35.32C219.967 36.688 220.339 38.308 220.339 40.18C220.339 41.596 220.123 42.868 219.691 43.996C219.283 45.124 218.683 46.096 217.891 46.912C217.099 47.704 216.151 48.316 215.047 48.748C213.943 49.156 212.707 49.36 211.339 49.36ZM211.339 45.94C212.227 45.94 213.007 45.724 213.679 45.292C214.351 44.86 214.867 44.224 215.227 43.384C215.611 42.52 215.803 41.452 215.803 40.18C215.803 38.26 215.395 36.832 214.579 35.896C213.763 34.936 212.683 34.456 211.339 34.456C210.451 34.456 209.671 34.672 208.999 35.104C208.327 35.512 207.799 36.148 207.415 37.012C207.055 37.852 206.875 38.908 206.875 40.18C206.875 42.076 207.283 43.516 208.099 44.5C208.915 45.46 209.995 45.94 211.339 45.94ZM238.27 49.288C237.55 49.288 236.998 49.096 236.614 48.712C236.23 48.304 236.038 47.728 236.038 46.984V34.924H230.494V36.976C230.494 38.632 230.386 40.12 230.17 41.44C229.978 42.76 229.666 43.912 229.234 44.896C228.826 45.88 228.286 46.708 227.614 47.38C226.942 48.052 226.138 48.592 225.202 49C224.698 49.216 224.23 49.276 223.798 49.18C223.39 49.084 223.042 48.904 222.754 48.64C222.49 48.352 222.322 48.016 222.25 47.632C222.178 47.224 222.226 46.828 222.394 46.444C222.562 46.06 222.886 45.736 223.366 45.472C223.966 45.136 224.458 44.716 224.842 44.212C225.226 43.708 225.526 43.108 225.742 42.412C225.958 41.692 226.114 40.876 226.21 39.964C226.306 39.052 226.354 38.008 226.354 36.832V33.916C226.354 33.1 226.57 32.476 227.002 32.044C227.434 31.612 228.058 31.396 228.874 31.396H238.018C238.834 31.396 239.458 31.612 239.89 32.044C240.322 32.476 240.538 33.1 240.538 33.916V46.984C240.538 47.728 240.334 48.304 239.926 48.712C239.542 49.096 238.99 49.288 238.27 49.288Z" fill="white"/>
<path d="M57.0905 40.5331L54.1411 33.6382C53.0653 31.1232 51.2437 29.0793 48.8733 27.7273C46.8922 26.5974 44.6069 26.0302 42.3383 26.0918C41.1806 24.1323 38.7139 23.2854 36.5664 24.2041C34.4189 25.1227 33.3275 27.4915 33.9452 29.6821C32.334 31.2803 31.1659 33.3247 30.6148 35.5378C29.9555 38.1858 30.1756 40.9147 31.2514 43.4297L34.2008 50.3246L33.8047 56.9839C33.7745 57.4907 34.009 57.9769 34.4242 58.269C34.8394 58.561 35.3763 58.6173 35.8431 58.4176L41.8385 55.853C43.8741 58.8653 47.8306 60.1159 51.2945 58.6342C54.7582 57.1525 56.5863 53.4274 55.8135 49.8749L61.8093 47.3101C62.2761 47.1104 62.6062 46.6833 62.6817 46.1813C62.7573 45.6793 62.5675 45.1739 62.1802 44.8457L57.0905 40.5331ZM50.1423 55.9406C48.1726 56.7832 45.9458 56.2048 44.6123 54.6665L53.04 51.0613C53.2316 53.0882 52.112 55.098 50.1423 55.9406ZM53.4442 47.702L41.9037 52.6386L36.8701 54.7918L37.146 50.1533C37.1596 49.9263 37.12 49.6994 37.0305 49.4903L33.9451 42.2775C32.3015 38.4352 33.3964 33.8871 36.6078 31.2173C37.1061 30.803 37.273 30.1106 37.0182 29.5148L36.8382 29.0941C36.4754 28.2459 36.8704 27.2605 37.7187 26.8977C38.5669 26.5348 39.5522 26.9297 39.915 27.7779L40.095 28.1987C40.3499 28.7945 40.9659 29.152 41.6096 29.0777C45.7584 28.599 49.8039 30.9482 51.4475 34.7905L54.5329 42.0033C54.6224 42.2124 54.7592 42.3977 54.9327 42.5448L58.4779 45.5487L53.4442 47.702Z" fill="white"/>
<path d="M50.1424 19.2039V19.2039C55.9763 18.9495 60.8235 23.6534 60.7444 29.4924V29.4924" stroke="#FCFF54" stroke-width="3" stroke-linecap="round"/>
<path d="M50.6186 9.97828V9.97828C61.2043 9.65135 69.9607 18.1488 69.9515 28.7397V28.7397" stroke="#FCFF54" stroke-width="3" stroke-linecap="round"/>
<path d="M23.1511 29.5465V29.5465C18.4662 33.0324 17.6769 39.7405 21.4246 44.2187V44.2187" stroke="#FCFF54" stroke-width="3" stroke-linecap="round"/>
<path d="M16.9575 22.6925V22.6925C8.54165 29.1221 7.11568 41.2402 13.8091 49.4477V49.4477" stroke="#FCFF54" stroke-width="3" stroke-linecap="round"/>
</svg>
