<svg width="11" height="11" viewBox="0 0 11 11" fill="none" xmlns="http://www.w3.org/2000/svg">
<path d="M6.50777 5.50901L10.7909 1.2257C11.0697 0.947088 11.0697 0.496611 10.7909 0.218C10.5123 -0.0606121 10.0619 -0.0606121 9.78325 0.218L5.49994 4.50131L1.21676 0.218C0.938014 -0.0606121 0.487668 -0.0606121 0.209057 0.218C-0.0696855 0.496611 -0.0696855 0.947088 0.209057 1.2257L4.49224 5.50901L0.209057 9.79232C-0.0696855 10.0709 -0.0696855 10.5214 0.209057 10.8C0.347906 10.939 0.530471 11.0088 0.712907 11.0088C0.895342 11.0088 1.07778 10.939 1.21676 10.8L5.49994 6.51671L9.78325 10.8C9.92223 10.939 10.1047 11.0088 10.2871 11.0088C10.4695 11.0088 10.652 10.939 10.7909 10.8C11.0697 10.5214 11.0697 10.0709 10.7909 9.79232L6.50777 5.50901Z" fill="#C6C6C6"/>
</svg>
