<svg width="20" height="20" viewBox="0 0 20 20" fill="none" xmlns="http://www.w3.org/2000/svg">
<path d="M9.06672 1.42525C9.39554 0.570772 10.6045 0.570773 10.9333 1.42525L12.7861 6.23991C12.9277 6.60795 13.2724 6.85839 13.6662 6.87935L18.8177 7.15363C19.732 7.20231 20.1056 8.35207 19.3945 8.92884L15.3881 12.1788C15.0818 12.4272 14.9501 12.8324 15.0519 13.2134L16.3829 18.1976C16.6192 19.0821 15.6411 19.7927 14.8729 19.2947L10.5439 16.4886C10.213 16.2741 9.78697 16.2741 9.45606 16.4886L5.12714 19.2947C4.35888 19.7927 3.38083 19.0821 3.61706 18.1976L4.94812 13.2134C5.04987 12.8324 4.91821 12.4272 4.61195 12.1788L0.605468 8.92884C-0.105574 8.35207 0.268006 7.20231 1.18227 7.15363L6.33383 6.87935C6.72762 6.85839 7.07231 6.60795 7.21394 6.23991L9.06672 1.42525Z" fill="#F4F855"/>
</svg>
